<svg width="24" height="24" viewBox="0 0 24 24" fill="none" xmlns="http://www.w3.org/2000/svg">
  <path d="M8.6 5.5H6.9C6.07 5.5 5.4 6.17 5.4 7C5.4 13.41 10.59 18.6 17 18.6C17.83 18.6 18.5 17.93 18.5 17.1V15.4C18.5 14.83 18.18 14.31 17.67 14.05L15.14 12.79C14.61 12.53 13.97 12.66 13.59 13.1L12.67 14.18C10.73 13.28 9.72 12.27 8.82 10.33L9.9 9.41C10.34 9.03 10.47 8.39 10.21 7.86L8.95 5.33C8.69 4.82 8.17 4.5 7.6 4.5" stroke="#FFFDF9" stroke-width="1.7" stroke-linecap="round" stroke-linejoin="round"/>
</svg>
